<?xml version="1.0" encoding="UTF-8"?>
<svg id="Ebene_1" data-name="Ebene 1" xmlns="http://www.w3.org/2000/svg" viewBox="0 0 64 48">
  <defs>
    <style>
      .cls-1 {
        fill: #253b80;
      }

      .cls-2 {
        fill: #222d65;
      }

      .cls-3 {
        fill: #179bd7;
      }
    </style>
  </defs>
  <g>
    <path class="cls-1" d="M18.82,32.98h-2.82c-.09,0-.18,.03-.26,.09-.07,.06-.12,.14-.13,.24l-1.14,7.24s0,.07,0,.1c0,.03,.03,.06,.05,.09,.02,.03,.05,.05,.08,.06,.03,.01,.06,.02,.1,.02h1.35c.09,0,.18-.03,.26-.09,.07-.06,.12-.15,.13-.24l.31-1.95c.01-.09,.06-.18,.13-.24,.07-.06,.16-.09,.25-.09h.89c1.86,0,2.93-.9,3.21-2.68,.13-.78,0-1.39-.36-1.82-.4-.47-1.11-.72-2.06-.72h0Zm.33,2.64c-.15,1.01-.93,1.01-1.68,1.01h-.43l.3-1.89c0-.06,.04-.11,.08-.14,.04-.04,.1-.06,.15-.06h.2c.51,0,.99,0,1.24,.29,.15,.17,.19,.43,.14,.79h0Zm8.12-.03h-1.35c-.06,0-.11,.02-.15,.06-.04,.04-.07,.09-.08,.14l-.06,.38-.09-.14c-.29-.42-.95-.57-1.6-.57-1.49,0-2.77,1.13-3.02,2.72-.13,.79,.05,1.55,.5,2.08,.41,.49,1,.69,1.7,.69,1.2,0,1.87-.77,1.87-.77l-.06,.38s0,.07,0,.1c0,.03,.03,.06,.05,.09,.02,.03,.05,.05,.08,.06,.03,.01,.06,.02,.1,.02h1.22c.09,0,.18-.03,.26-.09,.07-.06,.12-.14,.13-.24l.73-4.63s0-.07,0-.1c0-.03-.03-.06-.05-.09-.02-.03-.05-.05-.08-.06-.03-.01-.06-.02-.1-.02h0Zm-1.88,2.63c-.13,.77-.74,1.29-1.53,1.29-.39,0-.71-.13-.91-.36-.2-.24-.28-.57-.21-.95,.12-.77,.75-1.3,1.52-1.3,.38,0,.7,.13,.9,.37,.21,.24,.29,.58,.23,.96h0Zm9.09-2.63h-1.36c-.06,0-.13,.02-.18,.05-.06,.03-.11,.07-.14,.13l-1.87,2.76-.79-2.65c-.02-.08-.07-.15-.14-.2-.07-.05-.15-.08-.23-.08h-1.34s-.07,0-.11,.03c-.03,.02-.06,.04-.08,.07-.02,.03-.04,.07-.04,.1,0,.04,0,.07,.01,.11l1.5,4.39-1.41,1.99s-.04,.08-.04,.12c0,.04,0,.09,.03,.12,.02,.04,.05,.07,.09,.09,.04,.02,.08,.03,.12,.03h1.36c.06,0,.13-.02,.18-.04,.06-.03,.1-.07,.14-.12l4.52-6.52s.04-.08,.04-.12c0-.04,0-.09-.03-.12-.02-.04-.05-.07-.09-.09-.04-.02-.08-.03-.12-.03h0Z"/>
    <path class="cls-3" d="M38.96,32.98h-2.82c-.09,0-.18,.03-.25,.09-.07,.06-.12,.14-.13,.24l-1.14,7.24s0,.07,0,.1c0,.03,.03,.06,.05,.09,.02,.03,.05,.05,.08,.06,.03,.01,.06,.02,.1,.02h1.45c.07,0,.13-.02,.18-.07,.05-.04,.08-.1,.09-.17l.32-2.05c.01-.09,.06-.18,.13-.24,.07-.06,.16-.09,.25-.09h.89c1.86,0,2.93-.9,3.21-2.68,.13-.78,0-1.39-.36-1.82-.4-.47-1.11-.72-2.06-.72h0Zm.33,2.64c-.15,1.01-.93,1.01-1.68,1.01h-.43l.3-1.89c0-.06,.04-.11,.08-.14,.04-.04,.1-.06,.15-.06h.2c.51,0,.99,0,1.24,.29,.15,.17,.19,.43,.14,.79h0Zm8.12-.03h-1.35c-.06,0-.11,.02-.15,.06-.04,.04-.07,.09-.08,.14l-.06,.38-.09-.14c-.29-.42-.95-.57-1.6-.57-1.49,0-2.77,1.13-3.02,2.72-.13,.79,.05,1.55,.5,2.08,.41,.49,1,.69,1.7,.69,1.2,0,1.87-.77,1.87-.77l-.06,.38s0,.07,0,.1c0,.03,.03,.06,.05,.09,.02,.03,.05,.05,.08,.06,.03,.01,.06,.02,.1,.02h1.22c.09,0,.18-.03,.25-.09,.07-.06,.12-.14,.13-.24l.73-4.63s0-.07,0-.1c0-.03-.03-.06-.05-.09-.02-.03-.05-.05-.08-.06-.03-.01-.06-.02-.1-.02h0Zm-1.88,2.63c-.13,.77-.74,1.29-1.53,1.29-.39,0-.71-.13-.91-.36-.2-.24-.27-.57-.21-.95,.12-.77,.75-1.3,1.52-1.3,.38,0,.7,.13,.9,.37,.21,.24,.29,.58,.23,.96h0Zm3.48-5.05l-1.16,7.37s0,.07,0,.1c0,.03,.03,.06,.05,.09,.02,.03,.05,.05,.08,.06,.03,.01,.06,.02,.1,.02h1.17c.19,0,.36-.14,.39-.33l1.14-7.24s0-.07,0-.1c0-.03-.03-.06-.05-.09-.02-.03-.05-.05-.08-.06-.03-.01-.06-.02-.1-.02h-1.3c-.06,0-.11,.02-.15,.06-.04,.04-.07,.09-.08,.14Z"/>
  </g>
  <g>
    <path class="cls-1" d="M29.15,28.62l.41-2.62-.92-.02h-4.38l3.05-19.32c0-.06,.04-.11,.08-.15,.05-.04,.1-.06,.16-.06h7.39c2.45,0,4.15,.51,5.03,1.52,.41,.47,.68,.97,.81,1.51,.13,.57,.14,1.25,0,2.08v.06s0,.53,0,.53l.41,.24c.32,.16,.6,.38,.84,.64,.35,.4,.58,.92,.68,1.53,.1,.63,.07,1.37-.1,2.22-.19,.97-.5,1.82-.91,2.51-.36,.62-.85,1.16-1.44,1.58-.55,.39-1.2,.69-1.94,.87-.71,.19-1.53,.28-2.42,.28h-.58c-.41,0-.81,.15-1.12,.41-.31,.27-.52,.64-.59,1.05l-.04,.24-.73,4.62-.03,.17c0,.05-.02,.08-.05,.1-.02,.02-.05,.03-.08,.03h-3.55Z"/>
    <path class="cls-3" d="M41.58,11.68c-.02,.14-.05,.29-.08,.43-.98,5.01-4.31,6.74-8.57,6.74h-2.17c-.52,0-.96,.38-1.04,.89l-1.11,7.04-.31,2c-.01,.08,0,.16,.01,.24,.02,.08,.06,.15,.11,.21,.05,.06,.12,.11,.19,.14,.07,.03,.15,.05,.23,.05h3.85c.46,0,.84-.33,.91-.78l.04-.2,.72-4.6,.05-.25c.07-.45,.46-.78,.91-.78h.58c3.73,0,6.65-1.51,7.5-5.89,.36-1.83,.17-3.36-.77-4.43-.3-.33-.66-.61-1.05-.81h0Z"/>
    <path class="cls-2" d="M40.56,11.27c-.31-.09-.63-.16-.95-.21-.63-.1-1.27-.14-1.91-.14h-5.8c-.22,0-.43,.08-.6,.22s-.28,.34-.31,.56l-1.23,7.81-.04,.23c.04-.25,.16-.48,.36-.64,.19-.16,.43-.25,.69-.25h2.17c4.26,0,7.6-1.73,8.57-6.74,.03-.15,.05-.29,.08-.43-.26-.13-.53-.25-.8-.34-.07-.02-.15-.05-.22-.07h0Z"/>
    <path class="cls-1" d="M30.99,11.7c.03-.22,.14-.42,.31-.56,.17-.14,.38-.22,.6-.22h5.8c.69,0,1.33,.05,1.91,.14,.4,.06,.79,.16,1.17,.28,.29,.1,.55,.21,.8,.34,.29-1.85,0-3.11-1-4.25-1.1-1.26-3.09-1.79-5.64-1.79h-7.39c-.52,0-.96,.38-1.04,.89l-3.08,19.52c-.01,.09,0,.18,.02,.27,.02,.09,.07,.17,.13,.24,.06,.07,.13,.13,.22,.16,.08,.04,.17,.06,.27,.06h4.56l1.15-7.27,1.23-7.81h0Z"/>
  </g>
</svg>