<?xml version="1.0" encoding="UTF-8"?>
<svg id="Ebene_1" data-name="Ebene 1" xmlns="http://www.w3.org/2000/svg" viewBox="0 0 750 500">
  <defs>
    <style>
      .cls-1 {
        fill: #57535a;
      }
    </style>
  </defs>
  <path class="cls-1" d="M373.3,86.54c61.58,0,111.49,49.92,111.49,111.49s-49.92,111.49-111.49,111.49-111.49-49.92-111.49-111.49c.06-61.55,49.94-111.43,111.49-111.49M373.3,59.99c-76.24,0-138.04,61.8-138.04,138.04s61.8,138.04,138.04,138.04,138.04-61.8,138.04-138.04-61.8-138.04-138.04-138.04Z"/>
  <path class="cls-1" d="M378.5,113.08c-15.51-.14-30.45,5.81-41.62,16.56-5.82,5.59-10.6,12.17-14.12,19.43-4.01,8.01-6.83,16.56-8.39,25.38h-15.4v15.93h13.38v10.51c-.06.88-.06,1.77,0,2.65h-13.38v15.72h14.65c1.19,9.05,3.58,17.91,7.11,26.33,3.04,7.43,7.43,14.24,12.95,20.07,5.17,5.5,11.43,9.87,18.37,12.85,17.23,6.63,36.42,5.91,53.09-2.02,8.61-4.43,15.93-11.01,21.24-19.11l-12.32-11.36c-.55-.64-1.24-1.15-2.02-1.49-.7-.17-1.43-.17-2.12,0-1.81.03-3.51.85-4.67,2.23l-5.31,4.99c-2.48,2.09-5.27,3.78-8.28,4.99-4.2,1.74-8.73,2.54-13.27,2.34-8.66.17-16.98-3.39-22.83-9.77-7-8.58-11.32-19.03-12.42-30.05h39.61c2.14.12,4.23-.69,5.73-2.23,1.37-1.26,2.18-3.02,2.23-4.88v-8.71h-49.27v-13.17h51.92c2.18.14,4.31-.68,5.84-2.23,1.34-1.27,2.11-3.04,2.12-4.88v-8.81h-57.55c1.56-10.28,6.1-19.88,13.06-27.61,6.03-6.14,14.33-9.52,22.94-9.34,2.93-.05,5.86.27,8.71.96,2.25.52,4.42,1.3,6.48,2.34,1.64.85,3.2,1.85,4.67,2.97l3.5,2.97,2.97,2.34c.87.62,1.91.95,2.97.96,1.27.07,2.54-.26,3.61-.96l2.34-2.34,10.62-10.62c-5.08-6.88-11.6-12.57-19.11-16.67-8.65-4.45-18.31-6.61-28.03-6.26Z"/>
</svg>